<svg width="50" height="19" viewBox="0 0 50 19" fill="none" xmlns="http://www.w3.org/2000/svg">
<path d="M6.97062 11.8585C5.15212 11.876 3.69262 13.3635 3.70962 15.1815C3.71112 15.322 3.72412 15.4595 3.74262 15.5945C3.96162 17.216 5.35562 18.4585 7.03312 18.442C8.75762 18.4265 10.1561 17.0885 10.2831 15.3995C10.2901 15.307 10.2956 15.2135 10.2946 15.1185C10.2776 13.301 8.78912 11.8415 6.97062 11.8585Z" fill="#242424"/>
<path d="M38.8331 11.8585C37.0146 11.876 35.5546 13.3635 35.5726 15.1815C35.5736 15.322 35.5866 15.4595 35.6051 15.5945C35.8241 17.216 37.2181 18.4585 38.8956 18.442C40.6201 18.4265 42.0186 17.0885 42.1456 15.3995C42.1526 15.307 42.1581 15.2135 42.1571 15.1185C42.1396 13.301 40.6516 11.8415 38.8331 11.8585Z" fill="#242424"/>
<path fill-rule="evenodd" clip-rule="evenodd" d="M48.0345 12.5915L49.1705 13.09C49.411 13.1955 49.567 13.434 49.5675 13.6985V14.198C49.5675 14.5635 49.271 14.8605 48.9055 14.8605H47.1115V15.496C47.1115 15.6315 47.001 15.742 46.8655 15.742H46.309C46.173 15.742 46.0625 15.6315 46.0625 15.496V14.9025L42.902 15.4245C42.902 15.4245 42.915 15.218 42.9135 15.1135C42.8935 12.902 41.0775 11.1035 38.8265 11.1035C36.594 11.125 34.7955 12.9585 34.8165 15.1905C34.817 15.2305 34.8255 15.3035 34.8255 15.3035L11.037 15.4585C11.037 15.4585 11.0515 15.23 11.0505 15.1145C11.03 12.903 9.214 11.1045 6.963 11.1045C4.731 11.126 2.9325 12.9595 2.9535 15.1915C2.95418 15.2482 2.9597 15.3031 2.96521 15.3578C2.96781 15.3837 2.97041 15.4095 2.9725 15.4355C1.7045 15.4005 0.917 15.352 0.819 15.2805C0.15 14.7965 0 14.02 0 14.02V12.6845C0 12.48 0.1335 12.2995 0.329 12.2415L0.8185 12.094C0.8185 12.094 0.803 9.6965 0.7975 8.8975C0.792 7.996 1.396 7.3215 2.68 7.0775C4.153 6.7975 8.582 6.015 8.582 6.015C8.582 6.015 12.461 2.6215 13.965 1.4055C14.3215 1.1175 14.748 0.924999 15.1995 0.845999C20.422 -0.0630014 42.114 -0.190001 45.8425 0.910499C46.0845 0.981999 46.2855 1.152 46.3975 1.3785C49.0245 6.701 48.0345 12.5915 48.0345 12.5915ZM18.534 6.517C18.689 6.517 18.817 6.3965 18.8265 6.242L19.097 1.959C19.1015 1.877 19.0725 1.7965 19.0155 1.7375C18.9585 1.6785 18.8795 1.6455 18.7975 1.647L15.64 1.713C15.3165 1.7195 15.006 1.8445 14.7675 2.0635L12.764 3.9075C12.764 3.9075 13.001 4.125 13.0475 4.6975C13.077 5.062 13.071 6.517 13.071 6.517H18.534Z" fill="#242424"/>
</svg>
