<svg width="50" height="23" viewBox="0 0 50 23" fill="none" xmlns="http://www.w3.org/2000/svg">
<path d="M39.4121 17.897C39.4121 18.0765 39.4266 18.252 39.4491 18.4265C39.7096 20.501 41.4771 22.107 43.6226 22.107C45.8261 22.107 47.6321 20.4125 47.8146 18.257C47.8246 18.138 47.8331 18.018 47.8331 17.897C47.8331 15.572 45.9476 13.6865 43.6226 13.6865C41.2971 13.687 39.4121 15.572 39.4121 17.897Z" fill="#242424"/>
<path d="M4.59961 17.897C4.59961 18.0765 4.61461 18.252 4.63661 18.4265C4.89711 20.501 6.66461 22.107 8.81011 22.107C11.0141 22.107 12.8201 20.4125 13.0026 18.257C13.0131 18.138 13.0211 18.018 13.0211 17.897C13.0211 15.572 11.1361 13.6865 8.81061 13.6865C6.48511 13.6865 4.59961 15.572 4.59961 17.897Z" fill="#242424"/>
<path fill-rule="evenodd" clip-rule="evenodd" d="M0.304595 18.866L3.67959 18.8135C3.67439 18.7826 3.66867 18.7519 3.66294 18.7211L3.66293 18.721C3.6527 18.6661 3.64246 18.6111 3.6351 18.555C3.6046 18.3165 3.5901 18.1025 3.5901 17.898C3.5901 15.0195 5.93159 12.6785 8.8096 12.6785C11.6886 12.6785 14.0301 15.0205 14.0301 17.898C14.0301 18.048 14.0206 18.195 14.0086 18.3435C14.0017 18.4239 13.9897 18.5029 13.9777 18.582L13.9777 18.5821L13.9671 18.653L38.4186 18.269C38.4081 18.141 38.4021 18.017 38.4021 17.8985C38.4021 15.02 40.7436 12.679 43.6221 12.679C46.2441 12.679 48.4156 14.6245 48.7816 17.147C49.0731 16.5075 49.3546 15.6315 49.2451 14.775C49.1234 13.8262 48.5909 12.8936 48.1509 12.123C47.8354 11.5704 47.5675 11.1012 47.5326 10.769C47.4974 10.4342 47.5392 10.1246 47.5837 9.79418C47.645 9.33969 47.7116 8.8459 47.5906 8.193C47.3816 7.0655 45.4236 3.344 43.4401 2.081C41.9991 1.1635 40.9611 0.539001 36.5846 0.288001C30.4191 -0.0654993 26.1876 0.337501 22.4721 1.467C20.2631 2.139 12.7016 6.073 10.4091 7.3425C8.23929 8.54413 7.10335 8.93368 5.7769 9.38857L5.77683 9.38859C5.44417 9.50267 5.09953 9.62086 4.7236 9.757C2.5571 10.5415 1.18059 12.263 0.637595 13.564C0.094595 14.865 -0.300905 16.4855 0.304595 18.866ZM34.9871 7.311L34.3391 1.812C37.9286 1.875 41.6536 2.1575 41.9806 3.4155C42.1746 4.161 41.1931 5.9405 40.0176 6.464C39.1096 6.8685 37.7011 7.0215 34.9871 7.311ZM17.8796 5.299L17.4696 6.4985C17.4696 6.4985 18.2271 7.4455 17.6276 8.677C17.6276 8.677 25.0786 8.218 31.3911 7.6575L32.0826 1.7935H31.2316C25.2116 1.7935 22.7351 2.6915 17.8796 5.299Z" fill="#242424"/>
</svg>
