<svg width="50" height="27" viewBox="0 0 50 27" fill="none" xmlns="http://www.w3.org/2000/svg">
<path fill-rule="evenodd" clip-rule="evenodd" d="M35.1924 0.30749C35.0038 0.111047 34.7452 0 34.4729 0H28.0205L24.0952 3.52388C17.6047 4.97794 12.9481 9.25512 12.7156 9.47327L12.5123 9.66216C12.152 9.83634 11.014 10.2527 7.53559 10.9365C2.60195 11.908 1.66081 13.4797 1.48303 14.0875C1.08919 14.3815 0.451351 15.0827 0.3503 15.9077C0.269069 16.5655 0.0851351 16.8345 0.0851351 16.8338L0 16.9435V21.5868L0.00960961 21.6715C0.277027 22.9045 1.55496 23.5569 3.70511 23.5569C4.39084 23.5569 4.90526 23.4869 4.88529 23.4869C4.90339 23.4859 5.00787 23.4839 5.18962 23.4803C5.30783 23.478 5.45872 23.475 5.63979 23.4713C5.59279 23.3414 5.55 23.2101 5.51306 23.0755C5.47733 22.9458 5.44459 22.8152 5.41937 22.6814C5.35871 22.3664 5.32462 22.0422 5.32462 21.7095C5.32462 18.856 7.6461 16.5344 10.4995 16.5344C13.353 16.5344 15.6746 18.856 15.6746 21.7095C15.6746 21.9676 15.6494 22.2179 15.6132 22.4659C15.5934 22.6005 15.5704 22.7341 15.5401 22.8647C15.509 23 15.4764 23.1338 15.4351 23.2652C21.8973 23.1267 30.1201 22.944 36.4886 22.7839C36.4605 22.6533 36.4426 22.521 36.4248 22.3872C36.4069 22.2551 36.3967 22.123 36.3898 21.9893C36.3891 21.9763 36.3884 21.9634 36.3876 21.9505C36.3865 21.9325 36.3853 21.9146 36.3841 21.8967L36.3841 21.8962C36.38 21.8344 36.3758 21.7727 36.3758 21.7095C36.3758 18.856 38.6974 16.5344 41.5508 16.5344C44.3638 16.5344 46.6559 18.7922 46.7197 21.5913C46.7197 21.6106 46.7212 21.6301 46.7227 21.6497V21.6497C46.7243 21.6695 46.7258 21.6895 46.7258 21.7095C46.7258 21.7849 46.7206 21.859 46.7153 21.9334C46.7135 21.958 46.7118 21.9825 46.7102 22.0072C46.7024 22.1486 46.6884 22.2893 46.6698 22.4278C47.8857 22.2272 48.8001 21.5865 49.3296 20.5501C50.2353 18.7782 49.7736 16.379 49.4485 15.8695C49.274 15.5955 49.1869 14.5292 49.1097 13.583V13.583L49.1097 13.5829L49.1083 13.5658L49.1067 13.5465C49.0371 12.7073 48.9586 11.7604 48.8065 10.9425C48.7 10.3661 48.4659 9.5985 47.6745 9.5985C47.5952 9.5985 47.5158 9.60631 47.4374 9.61441L47.4092 9.61723C47.3687 9.6214 47.3242 9.62596 47.2593 9.62718C47.2577 9.62718 47.232 9.60225 47.1994 9.50751C46.967 8.84189 45.992 8.01396 44.7419 7.00135C44.4339 6.75285 44.0653 6.4536 43.9083 6.29925C43.9659 5.90045 43.9574 5.41066 43.6797 5.07312C43.5508 4.91562 43.3081 4.72748 42.8898 4.72748C42.8284 4.72748 42.7631 4.73123 42.6177 4.74414C42.3159 4.74414 41.7111 4.62012 40.8737 4.447L40.8683 4.44588C40.2991 4.32907 39.601 4.18581 38.7713 4.03578L35.1924 0.30749ZM19.6642 10.2773C19.6914 10.2725 19.7186 10.2677 19.749 10.2665C21.221 10.2115 21.471 11.5435 21.471 11.5435L28.677 11.249V5.415C26.977 5.5075 25.609 5.6625 24.859 5.905C23.211 6.4385 21.2945 7.503 19.6035 8.575V10.2865C19.6246 10.2844 19.6444 10.2809 19.6642 10.2773ZM38.884 9.7375C38.6325 10.1745 38.1745 10.452 37.671 10.473L31.745 10.715L31.214 5.418C33.663 5.4925 35.709 5.5845 36.7455 5.6405C37.225 5.666 37.6575 5.9425 37.881 6.3675L38.9095 8.319C39.145 8.7655 39.135 9.3015 38.884 9.7375Z" fill="#242424"/>
<path d="M6.48316 23.4527C7.15764 25.003 8.70058 26.0875 10.4989 26.0875C12.3618 26.0875 13.9486 24.9221 14.5815 23.2832C14.6317 23.1526 14.6764 23.0188 14.7145 22.882C14.751 22.7514 14.7814 22.6176 14.8063 22.4823C14.8506 22.2312 14.8785 21.973 14.8785 21.7089C14.8785 19.2901 12.9184 17.3299 10.4997 17.3299C8.08091 17.3299 6.12085 19.2901 6.12085 21.7089C6.12085 22.0369 6.15974 22.3563 6.22851 22.6643C6.25764 22.798 6.29262 22.9294 6.33496 23.0577C6.37821 23.1931 6.42761 23.3236 6.48316 23.4527Z" fill="#242424"/>
<path d="M37.3027 22.7623C37.7753 24.6703 39.4953 26.0875 41.5494 26.0875C43.6968 26.0875 45.4797 24.5396 45.8528 22.5001C45.8768 22.368 45.8955 22.235 45.9087 22.0989C45.9204 21.97 45.9282 21.8408 45.9282 21.7087C45.9282 21.7056 45.9282 21.7024 45.9282 21.6985C45.9235 19.2853 43.9642 17.3297 41.5494 17.3297C39.1313 17.3297 37.1705 19.2899 37.1705 21.7087C37.1705 21.7965 37.1791 21.882 37.1837 21.9691C37.1916 22.1036 37.2048 22.2356 37.2249 22.3664C37.2452 22.5003 37.2716 22.6324 37.3027 22.7623Z" fill="#242424"/>
</svg>
