<svg width="24" height="24" viewBox="0 0 24 24" fill="none" xmlns="http://www.w3.org/2000/svg">
<g clip-path="url(#clip0_3_4307)">
<path d="M5.14294 16.3441C4.25602 16.1639 3.43161 15.7549 2.75152 15.1578C1.93636 14.4453 1.35077 13.5072 1.0688 12.462C0.786834 11.4167 0.821146 10.3113 1.1674 9.2856C1.51366 8.25986 2.1563 7.35984 3.01407 6.69934C3.87184 6.03884 4.90621 5.64754 5.98637 5.57491C6.06089 5.57672 6.13438 5.55719 6.19816 5.51862C6.26195 5.48004 6.31337 5.42403 6.34637 5.35719C6.84137 3.92389 7.81267 2.70354 9.09837 1.89958C10.3841 1.09561 11.9065 0.7566 13.4118 0.939055C14.9172 1.12151 16.3145 1.81441 17.3709 2.90225C18.4273 3.99008 19.079 5.40714 19.2172 6.91719C19.2289 6.99665 19.263 7.07112 19.3155 7.13186C19.3681 7.1926 19.4369 7.23707 19.5138 7.26005C20.5662 7.50736 21.5004 8.11135 22.158 8.96942C22.8155 9.8275 23.1557 10.8867 23.1207 11.9672C23.0858 13.0477 22.6779 14.0827 21.9663 14.8965C21.2547 15.7103 20.2834 16.2527 19.2172 16.4315" stroke="#376B95" stroke-linecap="round" stroke-linejoin="round"/>
<path d="M7.76229 19.0217C7.25144 18.9326 7.25144 18.1989 7.76229 18.1097C8.66697 17.9519 9.50419 17.5284 10.1673 16.8931C10.8304 16.2577 11.2894 15.4394 11.4857 14.5423L11.52 14.4C11.6314 13.8943 12.3497 13.8909 12.4646 14.3949L12.5023 14.5594C12.7061 15.4532 13.1697 16.2668 13.8346 16.8979C14.4995 17.529 15.3362 17.9494 16.2394 18.1063C16.752 18.1954 16.752 18.9326 16.2394 19.0217C15.3362 19.1786 14.4995 19.599 13.8346 20.2301C13.1697 20.8612 12.7061 21.6748 12.5023 22.5686L12.4646 22.7332C12.3497 23.2372 11.6314 23.2337 11.5217 22.728L11.4892 22.5874C11.2927 21.6901 10.8335 20.8716 10.17 20.2363C9.50659 19.6009 8.669 19.1775 7.76401 19.02L7.76229 19.0217Z" stroke="#376B95" stroke-linecap="round" stroke-linejoin="round"/>
</g>
<defs>
<clipPath id="clip0_3_4307">
<rect width="24" height="24" fill="white"/>
</clipPath>
</defs>
</svg>
