<svg width="50" height="50" viewBox="0 0 50 50" fill="none" xmlns="http://www.w3.org/2000/svg">
<path d="M25.0053 16.1457C23.3477 16.1457 21.758 16.8042 20.5859 17.9763C19.4138 19.1484 18.7553 20.7381 18.7553 22.3957C18.7553 24.0533 19.4138 25.643 20.5859 26.8151C21.758 27.9872 23.3477 28.6457 25.0053 28.6457C26.6629 28.6457 28.2526 27.9872 29.4247 26.8151C30.5968 25.643 31.2553 24.0533 31.2553 22.3957C31.2553 20.7381 30.5968 19.1484 29.4247 17.9763C28.2526 16.8042 26.6629 16.1457 25.0053 16.1457ZM21.3595 22.3957C21.3595 21.4287 21.7436 20.5014 22.4273 19.8177C23.111 19.134 24.0384 18.7498 25.0053 18.7498C25.9722 18.7498 26.8996 19.134 27.5833 19.8177C28.267 20.5014 28.6511 21.4287 28.6511 22.3957C28.6511 23.3626 28.267 24.2899 27.5833 24.9737C26.8996 25.6574 25.9722 26.0415 25.0053 26.0415C24.0384 26.0415 23.111 25.6574 22.4273 24.9737C21.7436 24.2899 21.3595 23.3626 21.3595 22.3957ZM38.5418 33.3332L28.0334 44.4894C27.6439 44.9031 27.1738 45.2327 26.6522 45.458C26.1305 45.6833 25.5683 45.7995 25.0001 45.7995C24.4319 45.7995 23.8697 45.6833 23.348 45.458C22.8264 45.2327 22.3563 44.9031 21.9668 44.4894L11.4584 33.3332H11.498L11.4803 33.3123L11.4584 33.2863C8.76125 30.0964 7.28461 26.0522 7.29177 21.8748C7.29177 12.0946 15.2199 4.1665 25.0001 4.1665C34.7803 4.1665 42.7084 12.0946 42.7084 21.8748C42.7156 26.0522 41.239 30.0964 38.5418 33.2863L38.5199 33.3123L38.5022 33.3332H38.5418ZM36.5178 31.6467C38.8387 28.9204 40.1105 25.4553 40.1043 21.8748C40.1043 13.5332 33.3418 6.77067 25.0001 6.77067C16.6584 6.77067 9.89594 13.5332 9.89594 21.8748C9.88943 25.4553 11.1612 28.9205 13.4824 31.6467L13.8032 32.0248L23.8626 42.703C24.0087 42.8581 24.185 42.9817 24.3806 43.0662C24.5762 43.1507 24.787 43.1942 25.0001 43.1942C25.2132 43.1942 25.424 43.1507 25.6196 43.0662C25.8153 42.9817 25.9915 42.8581 26.1376 42.703L36.197 32.0248L36.5178 31.6467Z" fill="#376B95"/>
</svg>
