<svg width="50" height="50" viewBox="0 0 50 50" fill="none" xmlns="http://www.w3.org/2000/svg">
<path d="M37.7792 22.9165C38.9896 34.1144 43.75 37.4998 43.75 37.4998H6.25C6.25 37.4998 12.5 33.0561 12.5 17.4998C12.5 13.9644 13.8167 10.5728 16.1604 8.07275C18.5062 5.57275 21.6875 4.1665 25 4.1665C25.7021 4.1665 26.4 4.229 27.0833 4.354M28.6042 43.7498C28.2383 44.3818 27.7127 44.9064 27.0802 45.2711C26.4476 45.6359 25.7302 45.8279 25 45.8279C24.2698 45.8279 23.5524 45.6359 22.9198 45.2711C22.2873 44.9064 21.7617 44.3818 21.3958 43.7498M39.5833 16.6665C41.2409 16.6665 42.8306 16.008 44.0028 14.8359C45.1749 13.6638 45.8333 12.0741 45.8333 10.4165C45.8333 8.7589 45.1749 7.16919 44.0028 5.99709C42.8306 4.82498 41.2409 4.1665 39.5833 4.1665C37.9257 4.1665 36.336 4.82498 35.1639 5.99709C33.9918 7.16919 33.3333 8.7589 33.3333 10.4165C33.3333 12.0741 33.9918 13.6638 35.1639 14.8359C36.336 16.008 37.9257 16.6665 39.5833 16.6665Z" stroke="#376B95" stroke-width="1.5" stroke-linecap="round" stroke-linejoin="round"/>
</svg>
