<svg width="21" height="19" viewBox="0 0 21 19" fill="none" xmlns="http://www.w3.org/2000/svg">
<path d="M11.5 6V14C11.5 14.7956 11.1839 15.5587 10.6213 16.1213C10.0587 16.6839 9.29565 17 8.5 17H6.33C6.09409 17.6675 5.6298 18.2301 5.01919 18.5884C4.40858 18.9466 3.69098 19.0775 2.99321 18.9578C2.29545 18.8381 1.66246 18.4756 1.20613 17.9344C0.749797 17.3931 0.499512 16.708 0.499512 16C0.499512 15.292 0.749797 14.6069 1.20613 14.0656C1.66246 13.5244 2.29545 13.1619 2.99321 13.0422C3.69098 12.9225 4.40858 13.0534 5.01919 13.4116C5.6298 13.7699 6.09409 14.3325 6.33 15H8.5C8.76522 15 9.01957 14.8946 9.20711 14.7071C9.39464 14.5196 9.5 14.2652 9.5 14V6C9.5 5.20435 9.81607 4.44129 10.3787 3.87868C10.9413 3.31607 11.7044 3 12.5 3H15.5V0L20.5 4L15.5 8V5H12.5C12.2348 5 11.9804 5.10536 11.7929 5.29289C11.6054 5.48043 11.5 5.73478 11.5 6Z" fill="#242424" fill-opacity="0.6"/>
</svg>
