<svg width="25" height="24" viewBox="0 0 25 24" fill="none" xmlns="http://www.w3.org/2000/svg">
<path d="M5.5 20V19C5.5 17.1435 6.2375 15.363 7.55025 14.0503C8.86301 12.7375 10.6435 12 12.5 12M12.5 12C14.3565 12 16.137 12.7375 17.4497 14.0503C18.7625 15.363 19.5 17.1435 19.5 19V20M12.5 12C13.5609 12 14.5783 11.5786 15.3284 10.8284C16.0786 10.0783 16.5 9.06087 16.5 8C16.5 6.93913 16.0786 5.92172 15.3284 5.17157C14.5783 4.42143 13.5609 4 12.5 4C11.4391 4 10.4217 4.42143 9.67157 5.17157C8.92143 5.92172 8.5 6.93913 8.5 8C8.5 9.06087 8.92143 10.0783 9.67157 10.8284C10.4217 11.5786 11.4391 12 12.5 12Z" stroke="#242424" stroke-opacity="0.6" stroke-width="1.5" stroke-linecap="round" stroke-linejoin="round"/>
</svg>
